<svg width="48" height="48" viewBox="0 0 48 48" fill="none" xmlns="http://www.w3.org/2000/svg">
<rect y="14.4" width="4.8" height="19.2" fill="#170D1A"/>
<rect width="4.8" height="19.2" transform="matrix(-1 0 0 1 48 14.4)" fill="#170D1A"/>
<rect x="4.80002" y="33.6" width="4.8" height="4.8" fill="#170D1A"/>
<rect width="4.8" height="4.8" transform="matrix(-1 0 0 1 43.2 33.6)" fill="#170D1A"/>
<rect width="4.8" height="4.8" transform="matrix(1 0 0 -1 4.80002 14.4)" fill="#170D1A"/>
<rect x="43.2" y="14.4" width="4.8" height="4.8" transform="rotate(180 43.2 14.4)" fill="#170D1A"/>
<rect x="9.60001" y="38.4" width="4.8" height="4.8" fill="#170D1A"/>
<rect width="4.8" height="4.8" transform="matrix(-1 0 0 1 38.4 38.4)" fill="#170D1A"/>
<rect width="4.8" height="4.8" transform="matrix(1 0 0 -1 9.60001 9.60004)" fill="#170D1A"/>
<rect x="38.4" y="9.60004" width="4.8" height="4.8" transform="rotate(180 38.4 9.60004)" fill="#170D1A"/>
<rect x="14.4" y="43.2" width="19.2" height="4.8" fill="#170D1A"/>
<rect width="19.2" height="4.8" transform="matrix(1 0 0 -1 14.4 4.79999)" fill="#170D1A"/>
<path d="M21 28.2V27H21.6V26.4H22.2V25.8H22.8V25.2H23.4V24.6H24V23.4H23.4V22.8H22.8V22.2H22.2V21.6H21.6V21H21V19.8H21.6V19.2H22.8V19.8H23.4V20.4H24V21H24.6V21.6H25.2V22.2H25.8V22.8H26.4V23.4H27V24.6H26.4V25.2H25.8V25.8H25.2V26.4H24.6V27H24V27.6H23.4V28.2H22.8V28.8H21.6V28.2H21Z" fill="#170D1A"/>
</svg>
